# Blender v2.79 (sub 0) OBJ File: 'cliff04.blend'
# www.blender.org
mtllib cliff04.mtl
o Cube_Cube.001
v -2.409132 -1.000000 1.000000
v -2.000000 1.000000 0.841425
v 2.000000 -1.000000 1.226975
v -2.324371 -0.379429 1.000000
v -2.288642 0.178422 1.139553
v -2.000000 0.500000 0.901751
v -1.000000 -1.000000 1.473014
v 0.224913 -1.000000 1.211063
v 1.000000 -1.000000 1.352436
v 1.410964 -0.500000 0.769396
v 0.000000 -0.112937 1.000000
v -1.000000 -0.740246 1.260091
v 0.000000 0.235328 0.744497
v -1.000000 -0.240246 1.193619
v -1.000000 0.715385 1.213899
v -2.000000 -1.000000 0.500000
v -2.000000 1.000000 0.500000
v 2.000000 -1.000000 0.500000
v 2.000000 -1.000000 0.500000
v 1.000000 -0.500000 0.500000
v -2.000000 -0.500000 0.500000
v -2.000000 0.000000 0.500000
v -2.000000 0.500000 0.500000
v 0.000000 0.000000 0.500000
v -1.000000 0.500000 0.500000
v -2.000000 1.000000 0.500000
v -1.000000 -1.000000 0.500000
v 0.000000 -1.000000 0.500000
v 1.000000 -1.000000 0.500000
vt 0.704575 0.442878
vt 0.704575 0.523289
vt 0.574972 0.523289
vt 0.552606 0.442878
vt 0.157250 0.385197
vt 0.226580 0.390825
vt 0.282021 0.508607
vt 0.171589 0.508607
vt 0.345409 0.403753
vt 0.377401 0.510811
vt 0.482968 0.419197
vt 0.445329 0.512202
vt 0.310711 0.333232
vt 0.415917 0.325267
vt 0.182314 0.233427
vt 0.281856 0.216517
vt 0.184540 0.303888
vt 0.704575 0.201647
vt 0.704575 0.282058
vt 0.531110 0.282058
vt 0.615437 0.168749
vt 0.704575 0.362468
vt 0.577809 0.380553
vt 0.171589 0.641262
vt 0.218215 0.588797
vt 0.288439 0.589484
vt 0.288439 0.669777
vt 0.195357 0.731235
vt 0.288439 0.750069
vt 0.193871 0.831251
vt 0.288440 0.830362
vt 0.834092 0.623617
vt 0.776082 0.623666
vt 0.704575 0.534426
vt 0.834092 0.509900
vt 0.783567 0.422903
vt 0.834092 0.396183
vt 0.780476 0.259072
vt 0.834092 0.282466
vt 0.710575 0.168853
vt 0.834092 0.168749
vt 0.228760 0.508607
vt 0.288439 0.509191
vt 0.208796 0.168749
vt 0.531110 0.508532
vn 0.0000 -1.0000 0.0000
vn -0.2200 0.2493 0.9431
vn -0.1378 -0.0636 0.9884
vn -0.1379 0.1965 0.9708
vn 0.1346 0.3516 0.9264
vn 0.1206 0.4810 0.8684
vn 0.1142 0.3641 0.9243
vn -0.9245 0.2388 -0.2972
vn -0.8663 0.0940 -0.4907
vn -0.8014 0.0606 -0.5951
vn 0.3885 0.9028 -0.1843
vn 0.3249 0.8558 -0.4025
vn 0.3653 0.7006 -0.6130
vn 0.5651 0.7914 -0.2331
vn -1.0000 0.0000 0.0000
vn 0.0857 0.7257 0.6827
vn 0.2821 0.5675 0.7735
vn 0.4172 -0.0193 0.9086
vn -0.3182 0.1136 0.9412
usemtl None
s off
f 29/1/1 18/2/1 3/3/1 9/4/1
f 7/5/2 12/6/2 4/7/2 1/8/2
f 12/6/3 14/9/3 5/10/3 4/7/3
f 14/9/4 15/11/4 6/12/4 5/10/4
f 11/13/5 13/14/5 14/9/5 12/6/5
f 9/15/6 10/16/6 11/13/6 8/17/6
f 8/17/7 11/13/7 12/6/7 7/5/7
f 16/18/1 27/19/1 7/20/1 1/21/1
f 27/19/1 28/22/1 8/23/1 7/20/1
f 28/22/1 29/1/1 9/4/1 8/23/1
f 5/24/8 6/25/8 23/26/8 22/27/8
f 4/28/9 5/24/9 22/27/9 21/29/9
f 1/30/10 4/28/10 21/29/10 16/31/10
f 26/32/11 2/33/11 15/34/11 25/35/11
f 25/35/12 15/34/12 13/36/12 24/37/12
f 24/37/13 13/36/13 10/38/13 20/39/13
f 20/39/14 10/38/14 3/40/14 19/41/14
f 6/25/15 2/42/15 17/43/15 23/26/15
f 9/15/16 3/44/16 10/16/16
f 11/13/17 10/16/17 13/14/17
f 14/9/18 13/14/18 15/11/18
f 6/12/19 15/11/19 2/45/19
