# Blender v2.79 (sub 0) OBJ File: 'cliff05.blend'
# www.blender.org
mtllib cliff05.mtl
o Cube_Cube.001
v -1.000000 -1.000000 1.000000
v 0.280146 0.976817 1.000000
v -1.000000 -1.000000 -1.000000
v -1.000000 0.767208 -0.741560
v 2.242745 -1.000000 1.220853
v 1.000000 0.956578 1.000000
v 1.960927 -1.000000 -1.176361
v 1.000000 1.000000 -1.000000
v -1.000000 -0.600000 1.000000
v -1.000000 -0.200000 1.000000
v -1.000000 0.200000 1.000000
v -1.000000 0.600000 1.000000
v -1.000000 0.600000 -1.000000
v -1.000000 0.200000 -1.000000
v -1.000000 -0.200000 -1.000000
v -1.000000 -0.600000 -1.000000
v 1.000000 0.600000 -1.395538
v 1.000000 0.200000 -1.312606
v 0.807619 -0.200000 -1.518918
v 1.000000 -0.600000 -1.189364
v 1.000000 0.600000 1.333952
v 4.487205 0.200000 1.199401
v 2.693465 -0.200000 1.048358
v 2.644881 -0.600000 1.000000
v -0.512288 1.149895 0.500000
v -1.000000 1.212932 0.000000
v -0.153329 1.045547 -0.500000
v 4.303153 -1.000000 0.500000
v 6.318078 -1.000000 0.000000
v 6.044860 -1.000000 -0.500000
v 2.455714 1.102716 -0.500000
v 2.292633 1.106090 0.000000
v 1.000000 1.156706 0.500000
v 7.294849 -0.306565 -0.992699
v 5.512584 -0.742666 0.000000
v 4.541296 -0.600000 0.500000
v 4.176014 -0.046687 -1.297499
v 7.368180 -0.200000 0.000000
v 6.053061 -0.205962 0.500000
v 6.205564 0.464166 -0.680543
v 6.561638 0.427314 0.000000
v 6.126476 0.275008 0.500000
v 5.088509 0.862548 -0.500000
v 5.343630 0.600000 0.000000
v 2.633997 0.600000 0.500000
v -1.000000 0.600000 0.500000
v -1.000000 0.600000 0.000000
v -1.000000 0.600000 -0.500000
vt 0.574118 0.467797
vt 0.585420 0.442500
vt 0.580131 0.466464
vt 0.592581 0.477396
vt 0.418162 0.580152
vt 0.409355 0.579197
vt 0.424669 0.517590
vt 0.438801 0.518903
vt 0.386560 0.459203
vt 0.377242 0.511220
vt 0.361782 0.505930
vt 0.349793 0.496360
vt 0.452263 0.399163
vt 0.439136 0.400116
vt 0.438801 0.377411
vt 0.451070 0.337539
vt 0.368044 0.559247
vt 0.357391 0.530684
vt 0.500935 0.440738
vt 0.486971 0.453837
vt 0.488469 0.339003
vt 0.500935 0.339490
vt 0.470547 0.453621
vt 0.476003 0.338515
vt 0.444062 0.507542
vt 0.463536 0.338027
vt 0.495739 0.508646
vt 0.483175 0.515661
vt 0.463559 0.555675
vt 0.446021 0.559500
vt 0.402560 0.348908
vt 0.374298 0.397399
vt 0.557056 0.600907
vt 0.544873 0.601014
vt 0.541913 0.537725
vt 0.553603 0.507071
vt 0.532691 0.601120
vt 0.527241 0.540724
vt 0.520508 0.601226
vt 0.516447 0.538104
vt 0.508325 0.601333
vt 0.503523 0.538322
vt 0.500935 0.407285
vt 0.513391 0.382507
vt 0.438801 0.351751
vt 0.426726 0.386544
vt 0.413404 0.376066
vt 0.419253 0.337539
vt 0.596904 0.337539
vt 0.604372 0.344051
vt 0.604372 0.510433
vt 0.590979 0.444430
vt 0.608850 0.455388
vt 0.605667 0.417523
vt 0.604045 0.352776
vt 0.624506 0.337539
vt 0.466530 0.606312
vt 0.441856 0.582655
vt 0.522081 0.437111
vt 0.530742 0.337539
vt 0.590979 0.342599
vt 0.590979 0.442500
vt 0.559613 0.337539
vt 0.557056 0.395591
vt 0.485464 0.547673
vt 0.557056 0.376405
vt 0.486891 0.569771
vt 0.463892 0.608255
vt 0.491894 0.574204
vt 0.404093 0.545058
vt 0.414687 0.469685
vt 0.377853 0.571822
vt 0.398420 0.472646
vt 0.574118 0.442500
vt 0.574118 0.540327
vt 0.565808 0.582421
vt 0.557056 0.528358
vt 0.586749 0.530050
vt 0.621381 0.504353
vt 0.617225 0.537200
vt 0.595973 0.546530
vt 0.617680 0.558861
vt 0.599911 0.561160
vt 0.397433 0.590246
vt 0.404221 0.583251
vn -0.6095 0.6519 0.4512
vn -0.1494 0.7470 -0.6479
vn 0.3315 0.7847 0.5238
vn -0.0978 0.5488 0.8302
vn 0.0056 0.9383 0.3457
vn -0.0308 0.2803 0.9594
vn -0.0066 -0.0599 0.9982
vn -0.0268 -0.1272 0.9915
vn -0.0641 -0.4309 0.9001
vn 0.2947 0.0278 0.9552
vn 0.1784 -0.4052 0.8967
vn 0.2060 -0.5726 0.7935
vn 0.1046 0.9571 0.2702
vn -0.0731 -0.1040 -0.9919
vn -0.1668 -0.4096 -0.8969
vn -0.2042 0.2902 -0.9349
vn -0.1734 -0.1015 -0.9796
vn 0.1374 0.3073 -0.9416
vn 0.2445 0.9625 0.1175
vn 0.0947 0.8959 0.4341
vn 0.0503 0.5993 -0.7989
vn 0.4845 -0.0471 -0.8735
vn 0.4527 0.2995 0.8398
vn 0.0608 -0.5161 -0.8544
vn 0.5538 0.8226 -0.1292
vn 0.2150 -0.7728 0.5971
vn 0.0877 -0.4371 -0.8951
vn 0.6957 0.0462 0.7168
vn 0.3171 0.2737 0.9080
vn -0.0752 0.9624 -0.2611
vn 0.0083 0.9871 -0.1602
vn 0.0208 0.9994 0.0292
vn 0.1007 0.7887 -0.6064
vn 0.1264 0.9630 0.2380
vn 0.1697 0.7482 0.6414
vn -0.4117 0.7854 0.4622
vn -0.8333 0.3495 0.4284
vn -0.6200 0.4959 -0.6080
usemtl None
s off
f 48/1/1 27/2/1 4/3/1 13/4/1
f 13/5/2 4/6/2 8/7/2 17/8/2
f 45/9/3 33/10/3 6/11/3 21/12/3
f 21/13/4 6/14/4 2/15/4 12/16/4
f 33/10/5 25/17/5 2/18/5 6/11/5
f 5/19/6 24/20/6 9/21/6 1/22/6
f 24/20/7 23/23/7 10/24/7 9/21/7
f 23/23/8 22/25/8 11/26/8 10/24/8
f 22/25/9 21/13/9 12/16/9 11/26/9
f 28/27/10 36/28/10 24/20/10 5/19/10
f 36/28/11 39/29/11 23/23/11 24/20/11
f 39/29/12 42/30/12 22/25/12 23/23/12
f 42/31/13 45/9/13 21/12/13 22/32/13
f 3/33/14 16/34/14 20/35/14 7/36/14
f 16/34/15 15/37/15 19/38/15 20/35/15
f 15/37/16 14/39/16 18/40/16 19/38/16
f 14/39/17 13/41/17 17/42/17 18/40/17
f 18/40/18 17/42/18 43/43/18 40/44/18
f 40/45/19 43/46/19 44/47/19 41/48/19
f 41/48/20 44/47/20 45/9/20 42/31/20
f 19/49/21 18/50/21 40/51/21 37/52/21
f 37/53/22 40/54/22 41/55/22 38/56/22
f 38/57/23 41/58/23 42/30/23 39/29/23
f 20/35/24 19/38/24 37/59/24 34/60/24
f 34/61/25 37/62/25 38/63/25 35/64/25
f 35/65/26 38/57/26 39/29/26 36/28/26
f 7/36/27 20/35/27 34/60/27 30/66/27
f 30/67/28 34/68/28 35/65/28 29/69/28
f 29/69/29 35/65/29 36/28/29 28/27/29
f 8/7/30 4/6/30 27/70/30 31/71/30
f 31/71/31 27/70/31 26/72/31 32/73/31
f 32/73/32 26/72/32 25/17/32 33/10/32
f 17/8/33 8/7/33 31/71/33 43/46/33
f 43/46/34 31/71/34 32/73/34 44/47/34
f 44/74/35 32/75/35 33/76/35 45/77/35
f 12/78/36 2/79/36 25/80/36 46/81/36
f 46/81/37 25/80/37 26/82/37 47/83/37
f 47/84/38 26/72/38 27/70/38 48/85/38
