# Blender v2.79 (sub 0) OBJ File: ''
# www.blender.org
mtllib pyramid_3x1x3.mtl
o Cube
v 3.000000 -1.000000 -3.000000
v 3.000000 -1.000000 3.000000
v -3.000000 -1.000000 3.000000
v -2.999999 -1.000000 -3.000001
v -0.000000 1.000000 0.000001
v -0.000000 1.000000 0.000001
v -0.000000 1.000000 0.000001
v -0.000000 1.000000 0.000001
v 0.000001 -1.000000 -3.000000
v 0.000000 -1.000000 3.000000
v -0.000000 1.000000 0.000001
v -0.000000 1.000000 0.000001
v 3.000000 -1.000000 0.000000
v -3.000000 -1.000000 -0.000001
v -0.000000 1.000000 0.000001
v -0.000000 1.000000 0.000001
v -0.000000 1.000000 0.000001
v 0.000000 -1.000000 -0.000000
vn 0.0000 -1.0000 0.0000
vn 0.0000 0.0000 1.0000
vn 0.5547 0.8321 0.0000
vn 0.0000 0.8321 0.5547
vn -0.5547 0.8321 -0.0000
vn 0.0000 0.8321 -0.5547
usemtl Material
s off
f 18//1 10//1 3//1 14//1
f 17//2 16//2 7//2 12//2
f 13//3 15//3 6//3 2//3
f 10//4 12//4 7//4 3//4
f 14//5 16//5 8//5 4//5
f 11//6 9//6 4//6 8//6
f 5//6 1//6 9//6 11//6
f 2//4 6//4 12//4 10//4
f 15//2 17//2 12//2 6//2
f 13//1 2//1 10//1 18//1
f 1//1 13//1 18//1 9//1
f 5//2 11//2 17//2 15//2
f 3//5 7//5 16//5 14//5
f 1//3 5//3 15//3 13//3
f 11//2 8//2 16//2 17//2
f 9//1 18//1 14//1 4//1
