# Blender v2.79 (sub 0) OBJ File: 'Treadwheel.blend'
# www.blender.org
mtllib Treadwheel.mtl
o Cube.001
v -0.062500 -0.062500 0.062500
v -0.062500 0.062500 0.062500
v -0.062500 -0.062500 -0.062500
v -0.062500 0.062500 -0.062500
v 0.062500 -0.062500 0.062500
v 0.062500 0.062500 0.062500
v 0.062500 -0.062500 -0.062500
v 0.062500 0.062500 -0.062500
v 0.000000 0.500000 -0.500000
v 0.000000 0.500000 0.500000
v 0.024386 0.497598 -0.500000
v 0.024386 0.497598 0.500000
v 0.047835 0.490485 -0.500000
v 0.047835 0.490485 0.500000
v 0.069446 0.478934 -0.500000
v 0.069446 0.478934 0.500000
v 0.088388 0.463388 -0.500000
v 0.088388 0.463388 0.500000
v 0.103934 0.444446 -0.500000
v 0.103934 0.444446 0.500000
v 0.115485 0.422835 -0.500000
v 0.115485 0.422835 0.500000
v 0.122598 0.399386 -0.500000
v 0.122598 0.399386 0.500000
v 0.125000 0.375000 -0.500000
v 0.125000 0.375000 0.500000
v 0.122598 0.350614 -0.500000
v 0.122598 0.350614 0.500000
v 0.115485 0.327165 -0.500000
v 0.115485 0.327165 0.500000
v 0.103934 0.305554 -0.500000
v 0.103934 0.305554 0.500000
v 0.088388 0.286612 -0.500000
v 0.088388 0.286612 0.500000
v 0.069446 0.271066 -0.500000
v 0.069446 0.271066 0.500000
v 0.047835 0.259515 -0.500000
v 0.047835 0.259515 0.500000
v 0.024386 0.252402 -0.500000
v 0.024386 0.252402 0.500000
v -0.000000 0.250000 -0.500000
v -0.000000 0.250000 0.500000
v -0.024386 0.252402 -0.500000
v -0.024386 0.252402 0.500000
v -0.047835 0.259515 -0.500000
v -0.047835 0.259515 0.500000
v -0.069446 0.271066 -0.500000
v -0.069446 0.271066 0.500000
v -0.088388 0.286612 -0.500000
v -0.088388 0.286612 0.500000
v -0.103934 0.305554 -0.500000
v -0.103934 0.305554 0.500000
v -0.115485 0.327165 -0.500000
v -0.115485 0.327165 0.500000
v -0.122598 0.350614 -0.500000
v -0.122598 0.350614 0.500000
v -0.125000 0.375000 -0.500000
v -0.125000 0.375000 0.500000
v -0.122598 0.399386 -0.500000
v -0.122598 0.399386 0.500000
v -0.115485 0.422836 -0.500000
v -0.115485 0.422836 0.500000
v -0.103934 0.444446 -0.500000
v -0.103934 0.444446 0.500000
v -0.088388 0.463388 -0.500000
v -0.088388 0.463389 0.500000
v -0.069446 0.478934 -0.500000
v -0.069446 0.478934 0.500000
v -0.047835 0.490485 -0.500000
v -0.047835 0.490485 0.500000
v -0.024386 0.497598 -0.500000
v -0.024386 0.497598 0.500000
v 0.125000 -0.375000 -0.125000
v 0.125000 -0.375000 0.125000
v -0.125000 -0.375000 0.125000
v -0.125000 -0.375000 -0.125000
v 0.125000 0.375000 -0.125000
v 0.125000 0.375000 0.125000
v -0.125000 0.375000 0.125000
v -0.125000 0.375000 -0.125000
v 0.500000 0.500000 -0.000000
v -0.500000 0.500000 0.000000
v 0.500000 0.497598 0.024386
v -0.500000 0.497598 0.024386
v 0.500000 0.490485 0.047835
v -0.500000 0.490485 0.047835
v 0.500000 0.478934 0.069446
v -0.500000 0.478934 0.069446
v 0.500000 0.463388 0.088388
v -0.500000 0.463388 0.088388
v 0.500000 0.444446 0.103934
v -0.500000 0.444446 0.103934
v 0.500000 0.422835 0.115485
v -0.500000 0.422835 0.115485
v 0.500000 0.399386 0.122598
v -0.500000 0.399386 0.122598
v 0.500000 0.375000 0.125000
v -0.500000 0.375000 0.125000
v 0.500000 0.350614 0.122598
v -0.500000 0.350614 0.122598
v 0.500000 0.327165 0.115485
v -0.500000 0.327165 0.115485
v 0.500000 0.305554 0.103934
v -0.500000 0.305554 0.103934
v 0.500000 0.286612 0.088388
v -0.500000 0.286612 0.088388
v 0.500000 0.271066 0.069446
v -0.500000 0.271066 0.069446
v 0.500000 0.259515 0.047835
v -0.500000 0.259515 0.047835
v 0.500000 0.252402 0.024386
v -0.500000 0.252402 0.024386
v 0.500000 0.250000 -0.000000
v -0.500000 0.250000 -0.000000
v 0.500000 0.252402 -0.024386
v -0.500000 0.252402 -0.024386
v 0.500000 0.259515 -0.047836
v -0.500000 0.259515 -0.047835
v 0.500000 0.271066 -0.069446
v -0.500000 0.271066 -0.069446
v 0.500000 0.286612 -0.088388
v -0.500000 0.286612 -0.088388
v 0.500000 0.305554 -0.103934
v -0.500000 0.305554 -0.103934
v 0.500000 0.327165 -0.115485
v -0.500000 0.327165 -0.115485
v 0.500000 0.350614 -0.122598
v -0.500000 0.350614 -0.122598
v 0.500000 0.375000 -0.125000
v -0.500000 0.375000 -0.125000
v 0.500000 0.399386 -0.122598
v -0.500000 0.399386 -0.122598
v 0.500000 0.422836 -0.115485
v -0.500000 0.422836 -0.115485
v 0.500000 0.444446 -0.103934
v -0.500000 0.444446 -0.103934
v 0.500000 0.463388 -0.088388
v -0.500000 0.463389 -0.088388
v 0.500000 0.478934 -0.069446
v -0.500000 0.478934 -0.069446
v 0.500000 0.490485 -0.047835
v -0.500000 0.490485 -0.047835
v 0.500000 0.497598 -0.024386
v -0.500000 0.497598 -0.024386
vn -1.0000 0.0000 0.0000
vn 0.0000 0.0000 -1.0000
vn 1.0000 0.0000 0.0000
vn 0.0000 0.0000 1.0000
vn 0.0000 -1.0000 0.0000
vn 0.0000 1.0000 0.0000
vn 0.0980 0.9952 -0.0000
vn 0.2903 0.9569 -0.0000
vn 0.4714 0.8819 -0.0000
vn 0.6344 0.7730 -0.0000
vn 0.7730 0.6344 -0.0000
vn 0.8819 0.4714 -0.0000
vn 0.9569 0.2903 -0.0000
vn 0.9952 0.0980 -0.0000
vn 0.9952 -0.0980 0.0000
vn 0.9569 -0.2903 0.0000
vn 0.8819 -0.4714 0.0000
vn 0.7730 -0.6344 0.0000
vn 0.6344 -0.7730 0.0000
vn 0.4714 -0.8819 0.0000
vn 0.2903 -0.9569 0.0000
vn 0.0980 -0.9952 0.0000
vn -0.0980 -0.9952 0.0000
vn -0.2903 -0.9569 0.0000
vn -0.4714 -0.8819 0.0000
vn -0.6344 -0.7730 0.0000
vn -0.7730 -0.6344 0.0000
vn -0.8819 -0.4714 0.0000
vn -0.9569 -0.2903 0.0000
vn -0.9952 -0.0980 0.0000
vn -0.9952 0.0980 -0.0000
vn -0.9569 0.2903 -0.0000
vn -0.8819 0.4714 -0.0000
vn -0.7730 0.6344 -0.0000
vn -0.6344 0.7730 -0.0000
vn -0.4714 0.8819 -0.0000
vn -0.2903 0.9569 -0.0000
vn -0.0980 0.9952 -0.0000
vn 0.0000 0.9952 0.0980
vn 0.0000 0.9569 0.2903
vn 0.0000 0.8819 0.4714
vn 0.0000 0.7730 0.6344
vn 0.0000 0.6344 0.7730
vn 0.0000 0.4714 0.8819
vn 0.0000 0.2903 0.9569
vn 0.0000 0.0980 0.9952
vn 0.0000 -0.0980 0.9952
vn 0.0000 -0.2903 0.9569
vn 0.0000 -0.4714 0.8819
vn 0.0000 -0.6344 0.7730
vn -0.0000 -0.7730 0.6344
vn -0.0000 -0.8819 0.4714
vn -0.0000 -0.9569 0.2903
vn -0.0000 -0.9952 0.0980
vn -0.0000 -0.9952 -0.0980
vn -0.0000 -0.9569 -0.2903
vn -0.0000 -0.8819 -0.4714
vn -0.0000 -0.7730 -0.6344
vn -0.0000 -0.6344 -0.7730
vn -0.0000 -0.4714 -0.8819
vn -0.0000 -0.2903 -0.9569
vn -0.0000 -0.0980 -0.9952
vn -0.0000 0.0980 -0.9952
vn -0.0000 0.2903 -0.9569
vn -0.0000 0.4714 -0.8819
vn -0.0000 0.6344 -0.7730
vn 0.0000 0.7730 -0.6344
vn 0.0000 0.8819 -0.4714
vn 0.0000 0.9569 -0.2903
vn 0.0000 0.9952 -0.0980
usemtl Material
s off
f 1//1 2//1 4//1 3//1
f 3//2 4//2 8//2 7//2
f 7//3 8//3 6//3 5//3
f 5//4 6//4 2//4 1//4
f 3//5 7//5 5//5 1//5
f 8//6 4//6 2//6 6//6
f 9//7 10//7 12//7 11//7
f 11//8 12//8 14//8 13//8
f 13//9 14//9 16//9 15//9
f 15//10 16//10 18//10 17//10
f 17//11 18//11 20//11 19//11
f 19//12 20//12 22//12 21//12
f 21//13 22//13 24//13 23//13
f 23//14 24//14 26//14 25//14
f 25//15 26//15 28//15 27//15
f 27//16 28//16 30//16 29//16
f 29//17 30//17 32//17 31//17
f 31//18 32//18 34//18 33//18
f 33//19 34//19 36//19 35//19
f 35//20 36//20 38//20 37//20
f 37//21 38//21 40//21 39//21
f 39//22 40//22 42//22 41//22
f 41//23 42//23 44//23 43//23
f 43//24 44//24 46//24 45//24
f 45//25 46//25 48//25 47//25
f 47//26 48//26 50//26 49//26
f 49//27 50//27 52//27 51//27
f 51//28 52//28 54//28 53//28
f 53//29 54//29 56//29 55//29
f 55//30 56//30 58//30 57//30
f 57//31 58//31 60//31 59//31
f 59//32 60//32 62//32 61//32
f 61//33 62//33 64//33 63//33
f 63//34 64//34 66//34 65//34
f 65//35 66//35 68//35 67//35
f 67//36 68//36 70//36 69//36
f 12//4 10//4 72//4 70//4 68//4 66//4 64//4 62//4 60//4 58//4 56//4 54//4 52//4 50//4 48//4 46//4 44//4 42//4 40//4 38//4 36//4 34//4 32//4 30//4 28//4 26//4 24//4 22//4 20//4 18//4 16//4 14//4
f 69//37 70//37 72//37 71//37
f 71//38 72//38 10//38 9//38
f 9//2 11//2 13//2 15//2 17//2 19//2 21//2 23//2 25//2 27//2 29//2 31//2 33//2 35//2 37//2 39//2 41//2 43//2 45//2 47//2 49//2 51//2 53//2 55//2 57//2 59//2 61//2 63//2 65//2 67//2 69//2 71//2
f 73//5 74//5 75//5 76//5
f 77//6 80//6 79//6 78//6
f 73//3 77//3 78//3 74//3
f 74//4 78//4 79//4 75//4
f 75//1 79//1 80//1 76//1
f 77//2 73//2 76//2 80//2
f 81//39 82//39 84//39 83//39
f 83//40 84//40 86//40 85//40
f 85//41 86//41 88//41 87//41
f 87//42 88//42 90//42 89//42
f 89//43 90//43 92//43 91//43
f 91//44 92//44 94//44 93//44
f 93//45 94//45 96//45 95//45
f 95//46 96//46 98//46 97//46
f 97//47 98//47 100//47 99//47
f 99//48 100//48 102//48 101//48
f 101//49 102//49 104//49 103//49
f 103//50 104//50 106//50 105//50
f 105//51 106//51 108//51 107//51
f 107//52 108//52 110//52 109//52
f 109//53 110//53 112//53 111//53
f 111//54 112//54 114//54 113//54
f 113//55 114//55 116//55 115//55
f 115//56 116//56 118//56 117//56
f 117//57 118//57 120//57 119//57
f 119//58 120//58 122//58 121//58
f 121//59 122//59 124//59 123//59
f 123//60 124//60 126//60 125//60
f 125//61 126//61 128//61 127//61
f 127//62 128//62 130//62 129//62
f 129//63 130//63 132//63 131//63
f 131//64 132//64 134//64 133//64
f 133//65 134//65 136//65 135//65
f 135//66 136//66 138//66 137//66
f 137//67 138//67 140//67 139//67
f 139//68 140//68 142//68 141//68
f 84//1 82//1 144//1 142//1 140//1 138//1 136//1 134//1 132//1 130//1 128//1 126//1 124//1 122//1 120//1 118//1 116//1 114//1 112//1 110//1 108//1 106//1 104//1 102//1 100//1 98//1 96//1 94//1 92//1 90//1 88//1 86//1
f 141//69 142//69 144//69 143//69
f 143//70 144//70 82//70 81//70
f 81//3 83//3 85//3 87//3 89//3 91//3 93//3 95//3 97//3 99//3 101//3 103//3 105//3 107//3 109//3 111//3 113//3 115//3 117//3 119//3 121//3 123//3 125//3 127//3 129//3 131//3 133//3 135//3 137//3 139//3 141//3 143//3
