# This file uses centimeters as units for non-parametric coordinates.

mtllib RadialScaleStrip.mtl
g default
v -0.100000 -0.500000 0.000000
v 0.100000 -0.500000 0.000000
v -0.100000 0.500000 0.000000
v 0.100000 0.500000 0.000000
v -0.100000 0.000000 0.000000
v 0.100000 0.000000 0.000000
v -0.100000 0.250000 0.000000
v 0.100000 0.250000 0.000000
v -0.100000 0.375000 0.000000
v 0.100000 0.375000 0.000000
v -0.100000 0.125000 0.000000
v 0.100000 0.125000 0.000000
v -0.100000 -0.250000 0.000000
v 0.100000 -0.250000 0.000000
v -0.100000 -0.125000 0.000000
v 0.100000 -0.125000 0.000000
v -0.100000 -0.375000 0.000000
v 0.100000 -0.375000 0.000000
v -0.100000 -0.437500 0.000000
v 0.100000 -0.437500 0.000000
v -0.100000 -0.312500 0.000000
v 0.100000 -0.312500 0.000000
v -0.100000 -0.187500 0.000000
v 0.100000 -0.187500 0.000000
v -0.100000 -0.062500 0.000000
v 0.100000 -0.062500 0.000000
v -0.100000 0.062500 0.000000
v 0.100000 0.062500 0.000000
v -0.100000 0.187500 0.000000
v 0.100000 0.187500 0.000000
v -0.100000 0.312500 0.000000
v 0.100000 0.312500 0.000000
v -0.100000 0.437500 0.000000
v 0.100000 0.437500 0.000000
v -0.100000 -0.468750 0.000000
v 0.100000 -0.468750 0.000000
v -0.100000 -0.406250 0.000000
v 0.100000 -0.406250 0.000000
v -0.100000 -0.343750 0.000000
v 0.100000 -0.343750 0.000000
v -0.100000 -0.281250 0.000000
v 0.100000 -0.281250 0.000000
v -0.100000 -0.218750 0.000000
v 0.100000 -0.218750 0.000000
v -0.100000 -0.156250 0.000000
v 0.100000 -0.156250 0.000000
v -0.100000 -0.093750 0.000000
v 0.100000 -0.093750 0.000000
v -0.100000 -0.031250 0.000000
v 0.100000 -0.031250 0.000000
v -0.100000 0.031250 0.000000
v 0.100000 0.031250 0.000000
v -0.100000 0.093750 0.000000
v 0.100000 0.093750 0.000000
v -0.100000 0.156250 0.000000
v 0.100000 0.156250 0.000000
v -0.100000 0.218750 0.000000
v 0.100000 0.218750 0.000000
v -0.100000 0.281250 0.000000
v 0.100000 0.281250 0.000000
v -0.100000 0.343750 0.000000
v 0.100000 0.343750 0.000000
v -0.100000 0.406250 0.000000
v 0.100000 0.406250 0.000000
v -0.100000 0.468750 0.000000
v 0.100000 0.468750 0.000000
vt 0.400000 0.000000
vt 0.600000 0.000000
vt 0.400000 1.000000
vt 0.600000 1.000000
vt 0.400000 0.500000
vt 0.600000 0.500000
vt 0.400000 0.750000
vt 0.600000 0.750000
vt 0.400000 0.875000
vt 0.600000 0.875000
vt 0.400000 0.625000
vt 0.600000 0.625000
vt 0.400000 0.250000
vt 0.600000 0.250000
vt 0.400000 0.375000
vt 0.600000 0.375000
vt 0.400000 0.125000
vt 0.600000 0.125000
vt 0.400000 0.062500
vt 0.600000 0.062500
vt 0.400000 0.187500
vt 0.600000 0.187500
vt 0.400000 0.312500
vt 0.600000 0.312500
vt 0.400000 0.437500
vt 0.600000 0.437500
vt 0.400000 0.562500
vt 0.600000 0.562500
vt 0.400000 0.687500
vt 0.600000 0.687500
vt 0.400000 0.812500
vt 0.600000 0.812500
vt 0.400000 0.937500
vt 0.600000 0.937500
vt 0.400000 0.031250
vt 0.600000 0.031250
vt 0.400000 0.093750
vt 0.600000 0.093750
vt 0.400000 0.156250
vt 0.600000 0.156250
vt 0.400000 0.218750
vt 0.600000 0.218750
vt 0.400000 0.281250
vt 0.600000 0.281250
vt 0.400000 0.343750
vt 0.600000 0.343750
vt 0.400000 0.406250
vt 0.600000 0.406250
vt 0.400000 0.468750
vt 0.600000 0.468750
vt 0.400000 0.531250
vt 0.600000 0.531250
vt 0.400000 0.593750
vt 0.600000 0.593750
vt 0.400000 0.656250
vt 0.600000 0.656250
vt 0.400000 0.718750
vt 0.600000 0.718750
vt 0.400000 0.781250
vt 0.600000 0.781250
vt 0.400000 0.843750
vt 0.600000 0.843750
vt 0.400000 0.906250
vt 0.600000 0.906250
vt 0.400000 0.968750
vt 0.600000 0.968750
vn 0.000000 -0.000000 1.000000
vn 0.000000 -0.000000 1.000000
vn 0.000000 -0.000000 1.000000
vn 0.000000 -0.000000 1.000000
vn 0.000000 0.000000 1.000000
vn 0.000000 0.000000 1.000000
vn 0.000000 0.000000 1.000000
vn 0.000000 0.000000 1.000000
vn 0.000000 -0.000000 1.000000
vn 0.000000 -0.000000 1.000000
vn 0.000000 -0.000000 1.000000
vn 0.000000 -0.000000 1.000000
vn 0.000000 0.000000 1.000000
vn 0.000000 0.000000 1.000000
vn 0.000000 0.000000 1.000000
vn 0.000000 0.000000 1.000000
vn 0.000000 0.000000 1.000000
vn 0.000000 0.000000 1.000000
vn 0.000000 -0.000000 1.000000
vn 0.000000 -0.000000 1.000000
vn 0.000000 -0.000000 1.000000
vn 0.000000 -0.000000 1.000000
vn 0.000000 -0.000000 1.000000
vn 0.000000 -0.000000 1.000000
vn 0.000000 0.000000 1.000000
vn 0.000000 0.000000 1.000000
vn 0.000000 -0.000000 1.000000
vn 0.000000 -0.000000 1.000000
vn 0.000000 -0.000000 1.000000
vn 0.000000 -0.000000 1.000000
vn 0.000000 0.000000 1.000000
vn 0.000000 0.000000 1.000000
vn 0.000000 -0.000000 1.000000
vn 0.000000 -0.000000 1.000000
vn 0.000000 -0.000000 1.000000
vn 0.000000 -0.000000 1.000000
vn 0.000000 0.000000 1.000000
vn 0.000000 0.000000 1.000000
vn 0.000000 -0.000000 1.000000
vn 0.000000 -0.000000 1.000000
vn 0.000000 -0.000000 1.000000
vn 0.000000 -0.000000 1.000000
vn 0.000000 0.000000 1.000000
vn 0.000000 0.000000 1.000000
vn 0.000000 0.000000 1.000000
vn 0.000000 0.000000 1.000000
vn 0.000000 0.000000 1.000000
vn 0.000000 0.000000 1.000000
vn 0.000000 0.000000 1.000000
vn 0.000000 0.000000 1.000000
vn 0.000000 0.000000 1.000000
vn 0.000000 0.000000 1.000000
vn 0.000000 0.000000 1.000000
vn 0.000000 0.000000 1.000000
vn 0.000000 0.000000 1.000000
vn 0.000000 0.000000 1.000000
vn 0.000000 -0.000000 1.000000
vn 0.000000 -0.000000 1.000000
vn 0.000000 -0.000000 1.000000
vn 0.000000 -0.000000 1.000000
vn 0.000000 -0.000000 1.000000
vn 0.000000 -0.000000 1.000000
vn 0.000000 -0.000000 1.000000
vn 0.000000 -0.000000 1.000000
vn 0.000000 -0.000000 1.000000
vn 0.000000 -0.000000 1.000000
s 1
g RadialScaleStrip
usemtl initialShadingGroup
f 65/65/1 66/66/2 4/4/3 3/3/4
f 49/49/5 50/50/6 6/6/7 5/5/8
f 57/57/9 58/58/10 8/8/11 7/7/12
f 61/61/13 62/62/14 10/10/15 9/9/16
f 53/53/17 54/54/18 12/12/19 11/11/20
f 41/41/21 42/42/22 14/14/23 13/13/24
f 45/45/25 46/46/26 16/16/27 15/15/28
f 37/37/29 38/38/30 18/18/31 17/17/32
f 35/35/33 36/36/34 20/20/35 19/19/36
f 39/39/37 40/40/38 22/22/39 21/21/40
f 43/43/41 44/44/42 24/24/43 23/23/44
f 47/47/45 48/48/46 26/26/47 25/25/48
f 51/51/49 52/52/50 28/28/51 27/27/52
f 55/55/53 56/56/54 30/30/55 29/29/56
f 59/59/57 60/60/58 32/32/59 31/31/60
f 63/63/61 64/64/62 34/34/63 33/33/64
f 1/1/65 2/2/66 36/36/34 35/35/33
f 19/19/36 20/20/35 38/38/30 37/37/29
f 17/17/32 18/18/31 40/40/38 39/39/37
f 21/21/40 22/22/39 42/42/22 41/41/21
f 13/13/24 14/14/23 44/44/42 43/43/41
f 23/23/44 24/24/43 46/46/26 45/45/25
f 15/15/28 16/16/27 48/48/46 47/47/45
f 25/25/48 26/26/47 50/50/6 49/49/5
f 5/5/8 6/6/7 52/52/50 51/51/49
f 27/27/52 28/28/51 54/54/18 53/53/17
f 11/11/20 12/12/19 56/56/54 55/55/53
f 29/29/56 30/30/55 58/58/10 57/57/9
f 7/7/12 8/8/11 60/60/58 59/59/57
f 31/31/60 32/32/59 62/62/14 61/61/13
f 9/9/16 10/10/15 64/64/62 63/63/61
f 33/33/64 34/34/63 66/66/2 65/65/1
